<svg width="100" height="50" viewBox="0 0 100 50" fill="none" xmlns="http://www.w3.org/2000/svg">
<path fill-rule="evenodd" clip-rule="evenodd" d="M99.0267 3.58286C98.4883 4.49174 96.7913 6.99688 95.2412 9.14306C90.3462 15.9253 88.331 18.8581 85.5735 23.1428C84.105 25.4417 82.7588 27.4657 82.6038 27.649C82.1306 28.1531 81.0211 28.0004 80.5234 27.3741C80.1645 26.9082 80.1481 26.8012 80.3684 26.0757C80.6866 25.0522 82.922 20.8821 84.5455 18.2318C85.2227 17.1015 85.8345 16.1162 85.8917 16.0245C85.9488 15.9329 84.7413 16.88 83.2402 18.1402C74.6657 25.2203 67.1355 30.0625 57.5738 34.6375C49.1135 38.6778 42.2849 41.2898 32.2664 44.2991C24.8178 46.5445 18.7805 47.7665 8.41936 49.1948C2.35765 50.0273 0.676987 50.1571 0.277222 49.844C-0.155174 49.5079 -0.0817337 49.1566 0.497513 48.79C0.995178 48.4921 1.03598 48.4921 1.27258 48.8053C1.53365 49.1184 1.67233 49.1184 4.57672 48.7289C8.55803 48.2248 16.4962 46.9646 19.4495 46.3918C22.5986 45.7578 31.1161 43.4589 35.5298 42.0536C52.899 36.4323 66.5644 29.4057 78.5083 19.8968C83.1423 16.2079 90.8683 9.19651 91.4802 8.12724C91.7004 7.73772 91.676 7.73772 90.7459 8.18071C88.8287 9.08958 84.1866 10.8844 82.3672 11.4267C80.2705 12.0606 75.8487 12.9848 70.7415 13.8937C67.9513 14.3977 67.2333 14.4665 66.8173 14.2832C65.8627 13.8784 65.7241 12.4501 66.597 11.9308C66.8173 11.8009 68.4408 11.4114 70.1786 11.0983C81.1272 9.07431 83.9989 8.16543 92.2226 4.21678C94.3438 3.21625 96.1631 2.38375 96.2855 2.38375C96.4242 2.38375 96.8566 1.87967 97.2563 1.26867C98.0885 0.0237313 98.6841 -0.26651 99.4917 0.229935C100.283 0.711105 100.169 1.62 99.0185 3.58286L99.0267 3.58286Z" fill="white"/>
</svg>
