<svg width="18" height="18" viewBox="0 0 18 18" fill="none" xmlns="http://www.w3.org/2000/svg">
<path d="M10.0579 8.99916L14.7829 4.28166C14.9242 4.14043 15.0035 3.94889 15.0035 3.74916C15.0035 3.54944 14.9242 3.35789 14.7829 3.21666C14.6417 3.07543 14.4502 2.99609 14.2504 2.99609C14.0507 2.99609 13.8592 3.07543 13.7179 3.21666L9.00044 7.94166L4.28294 3.21666C4.14171 3.07543 3.95017 2.99609 3.75044 2.99609C3.55072 2.99609 3.35917 3.07543 3.21794 3.21666C3.07671 3.35789 2.99737 3.54944 2.99737 3.74916C2.99737 3.94889 3.07671 4.14043 3.21794 4.28166L7.94294 8.99916L3.21794 13.7167C3.14765 13.7864 3.09185 13.8693 3.05377 13.9607C3.0157 14.0521 2.99609 14.1502 2.99609 14.2492C2.99609 14.3482 3.0157 14.4462 3.05377 14.5376C3.09185 14.629 3.14765 14.7119 3.21794 14.7817C3.28766 14.852 3.37062 14.9078 3.46201 14.9458C3.5534 14.9839 3.65143 15.0035 3.75044 15.0035C3.84945 15.0035 3.94748 14.9839 4.03888 14.9458C4.13027 14.9078 4.21322 14.852 4.28294 14.7817L9.00044 10.0567L13.7179 14.7817C13.7877 14.852 13.8706 14.9078 13.962 14.9458C14.0534 14.9839 14.1514 15.0035 14.2504 15.0035C14.3495 15.0035 14.4475 14.9839 14.5389 14.9458C14.6303 14.9078 14.7132 14.852 14.7829 14.7817C14.8532 14.7119 14.909 14.629 14.9471 14.5376C14.9852 14.4462 15.0048 14.3482 15.0048 14.2492C15.0048 14.1502 14.9852 14.0521 14.9471 13.9607C14.909 13.8693 14.8532 13.7864 14.7829 13.7167L10.0579 8.99916Z" fill="#F3F3F3"/>
</svg>
