<svg width="19" height="18" viewBox="0 0 19 18" fill="none" xmlns="http://www.w3.org/2000/svg">
<path d="M1.73438 4.5C1.73438 4.08579 2.07016 3.75 2.48438 3.75H15.9844C16.3986 3.75 16.7344 4.08579 16.7344 4.5C16.7344 4.91421 16.3986 5.25 15.9844 5.25L2.48437 5.25C2.07016 5.25 1.73438 4.91421 1.73438 4.5Z" fill="white"/>
<path d="M1.73438 9C1.73438 8.58579 2.07016 8.25 2.48438 8.25L15.9844 8.25C16.3986 8.25 16.7344 8.58579 16.7344 9C16.7344 9.41422 16.3986 9.75 15.9844 9.75L2.48437 9.75C2.07016 9.75 1.73438 9.41421 1.73438 9Z" fill="white"/>
<path d="M2.48438 12.75C2.07016 12.75 1.73438 13.0858 1.73438 13.5C1.73438 13.9142 2.07016 14.25 2.48437 14.25L15.9844 14.25C16.3986 14.25 16.7344 13.9142 16.7344 13.5C16.7344 13.0858 16.3986 12.75 15.9844 12.75L2.48438 12.75Z" fill="white"/>
</svg>
