<svg width="32" height="32" viewBox="0 0 32 32" fill="none" xmlns="http://www.w3.org/2000/svg">
<rect width="32" height="32" fill="#24999E"/>
<path d="M8.91406 22.0749L11.7535 20.849C12.0225 21.7592 12.5156 22.4557 13.233 22.9386C13.9503 23.4122 14.8669 23.6491 15.9827 23.6491C17.0388 23.6491 17.8757 23.3751 18.4934 22.8272C19.121 22.2792 19.4349 21.5456 19.4349 20.6262C19.4349 19.4281 18.3688 18.3602 16.2368 17.4222C15.9379 17.2829 15.7088 17.1807 15.5493 17.1157C13.1383 16.0198 11.5293 15.0308 10.7223 14.1485C9.9253 13.257 9.52678 12.1704 9.52678 10.8888C9.52678 9.22646 10.1295 7.87986 11.335 6.84901C12.5505 5.81816 14.1396 5.30273 16.1023 5.30273C17.7163 5.30273 19.0662 5.59527 20.1522 6.18035C21.2382 6.75614 21.9904 7.58732 22.4088 8.67389L19.6291 10.0112C19.1908 9.37041 18.7076 8.90142 18.1795 8.60424C17.6615 8.30705 17.0637 8.15846 16.3862 8.15846C15.4298 8.15846 14.6676 8.39064 14.0997 8.85498C13.5418 9.31933 13.2629 9.94155 13.2629 10.7217C13.2629 11.9475 14.4983 13.0898 16.9691 14.1485C17.1584 14.2321 17.3078 14.2971 17.4174 14.3436C19.5793 15.2722 21.0638 16.1824 21.8708 17.0739C22.6778 17.9562 23.0813 19.0613 23.0813 20.3893C23.0813 22.321 22.4287 23.858 21.1236 25.0003C19.8184 26.1333 18.055 26.6998 15.8333 26.6998C13.9702 26.6998 12.4409 26.3005 11.2454 25.5018C10.0598 24.7031 9.28269 23.5608 8.91406 22.0749Z" fill="#F3F3F3"/>
</svg>
