<svg width="150" height="96" viewBox="0 0 150 96" fill="none" xmlns="http://www.w3.org/2000/svg">
<g id="PayU" style="mix-blend-mode:luminosity">
<g id="PayU_2">
<g id="Group">
<path id="Vector" d="M124.977 39.6219C124.97 40.4987 124.432 41.017 123.555 41.0267C122.427 41.0364 121.296 41.0267 120.164 41.0244C120.164 41.0244 120.251 50.4228 120.13 55.1222C119.987 60.8026 116.959 64.6661 111.488 66.1775C106.861 67.4564 102.184 67.4467 97.6103 65.8941C92.9571 64.3147 90.4016 60.9769 89.8807 56.0838C89.808 55.3862 89.7862 54.6886 89.7862 53.9884C89.7862 48.3905 89.7838 42.7901 89.7862 37.1924C89.7862 34.6684 90.5371 33.8835 93.0539 33.7722C94.4176 33.7115 95.7815 33.6559 97.1305 33.9102C98.3877 34.1451 99.0249 34.8621 99.1435 36.1436C99.1894 36.6257 99.2112 37.1126 99.2138 37.5947C99.2162 43.2121 99.2138 48.8292 99.2162 54.444C99.2162 56.0282 99.6618 57.3918 101.169 58.1842C101.907 58.5718 102.714 58.7413 103.542 58.8188C104.836 58.94 106.12 58.9303 107.396 58.6686C109.557 58.2277 110.681 56.91 110.761 54.701C110.765 54.5388 110.761 54.3763 110.763 54.2165C110.77 48.4198 110.775 42.6234 110.787 36.8294C110.787 36.5071 110.819 36.1827 110.87 35.8654C111.044 34.7584 111.713 34.1285 112.798 33.9057C113.411 33.7797 114.036 33.7724 114.656 33.7435V33.7459H115.455C115.455 33.7459 115.453 32.9877 115.477 32.7551C115.562 31.9752 116.022 31.4665 116.795 31.4568C119.072 31.4253 121.351 31.423 123.63 31.4521C124.464 31.4642 124.972 32.0431 124.977 32.8934C124.99 35.1358 124.992 37.379 124.977 39.6219Z" fill="#BAD000"/>
<path id="Vector_2" d="M120.171 41.0201C119.131 41.0156 118.088 40.9678 117.05 41.0196C116.143 41.0648 115.435 40.4781 115.464 39.4118C115.51 37.6716 115.499 35.4858 115.472 33.7461C115.472 33.7461 115.722 33.7551 115.853 33.7601C116.676 33.7916 117.5 33.7698 118.311 33.9829C119.278 34.2374 119.858 34.8197 120.048 35.8111C120.222 36.7209 120.131 37.6363 120.15 38.5492C120.168 39.3742 120.162 40.1996 120.166 41.0251C120.166 41.0253 120.171 41.0201 120.171 41.0201Z" fill="#AEB702"/>
<g id="Group_2">
<path id="Vector_3" d="M18.0004 51.5605C18.0004 47.5414 17.9988 43.5226 18.0021 39.5036C18.0028 38.7498 18.0381 37.9964 18.2166 37.2597C18.7212 35.18 20.1962 33.9039 22.4703 33.8165C26.2147 33.6728 29.9683 33.5511 33.7051 33.9186C36.0988 34.154 38.2832 34.9685 39.9135 36.8648C41.0852 38.2277 41.6502 39.8594 41.8981 41.6093C42.2284 43.9396 42.1934 46.258 41.5481 48.5402C40.6452 51.7326 38.4689 53.5692 35.3181 54.3508C33.9009 54.7025 32.4553 54.815 30.9981 54.8138C28.3607 54.8114 25.7231 54.8254 23.086 54.7996C22.6001 54.7948 22.4916 54.9367 22.4945 55.4031C22.5148 58.525 22.5035 61.6469 22.5049 64.7687C22.5051 65.2236 22.4708 65.6749 22.1864 66.0481C21.5861 66.8359 18.9755 66.8484 18.3513 66.0763C18.178 65.8617 18.0764 65.6133 18.0594 65.3372C18.0352 64.9437 18.0028 64.5494 18.0023 64.1557C17.9988 59.9573 18.0004 55.759 18.0004 51.5605ZM22.507 45.0712C22.507 46.7577 22.5196 48.4443 22.4973 50.1307C22.4923 50.5101 22.5937 50.6027 22.9685 50.6005C25.7494 50.584 28.5303 50.596 31.3112 50.5887C32.0649 50.5868 32.8157 50.5115 33.5581 50.3768C35.6636 49.9944 36.9771 48.8142 37.3375 46.9215C37.6588 45.2334 37.6813 43.5318 37.3337 41.844C36.9428 39.9459 35.8334 38.7186 33.9014 38.2864C33.1273 38.1134 32.3431 38.0272 31.5562 38.0212C29.2061 38.0035 26.8555 38.0118 24.5055 38.0184C24.2387 38.0191 23.9673 38.0508 23.7061 38.1062C23.0803 38.2391 22.6934 38.6279 22.5939 39.2646C22.5414 39.5999 22.5132 39.9421 22.5115 40.2814C22.5023 41.8776 22.5068 43.4743 22.507 45.0712Z" fill="#BAD000"/>
<path id="Vector_4" d="M70.9159 76.422C69.7302 76.4464 69.2763 76.0886 69.0109 74.9198C68.9315 74.571 68.8458 74.22 68.812 73.8653C68.7369 73.0837 69.0393 72.6875 69.8152 72.5455C70.5024 72.4195 71.2062 72.3695 71.8831 72.2064C73.4782 71.8218 74.6145 70.8429 75.3569 69.3883C75.6834 68.7487 75.9567 68.0876 76.1856 67.4087C76.2441 67.2359 76.4307 67.0299 76.2716 66.8681C76.148 66.7426 75.9339 66.8698 75.7623 66.902C74.9067 67.0621 74.0491 67.0659 73.195 66.9112C71.4096 66.5878 70.2768 65.4682 69.5612 63.8692C68.8039 62.1773 68.4307 60.3637 67.9408 58.589C66.5878 53.6867 65.2591 48.7777 63.9262 43.8698C63.4621 42.1604 63.8495 41.6652 65.6191 41.67C65.7628 41.6704 65.9063 41.6697 66.0498 41.6754C67.3332 41.7251 67.8965 42.1563 68.2453 43.4019C68.6891 44.9872 69.1115 46.5787 69.5448 48.1673C70.694 52.381 71.8438 56.5947 72.9946 60.8079C73.037 60.9633 73.0941 61.1148 73.1457 61.2675C73.71 62.9402 74.4296 63.3023 76.3464 63.065C77.054 62.9777 77.4567 62.4501 77.72 61.8273C78.1482 60.8153 78.3248 59.7315 78.582 58.6725C79.8112 53.6102 81.0233 48.5438 82.2456 43.4798C82.5643 42.1594 83.117 41.71 84.4658 41.6735C84.9123 41.6614 85.3606 41.6449 85.8062 41.7382C86.5391 41.8914 86.8043 42.2177 86.7882 42.9719C86.7785 43.4255 86.6464 43.8553 86.5382 44.2884C84.6476 51.8548 82.7594 59.4222 80.854 66.9849C80.3482 68.9922 79.6352 70.9208 78.4392 72.638C76.9211 74.8175 74.7945 75.9657 72.2004 76.3213C71.9163 76.3604 71.6312 76.3943 71.3456 76.4201C71.2036 76.4326 71.0591 76.422 70.9159 76.422Z" fill="#BAD000"/>
<path id="Vector_5" d="M62.2226 54.0452C62.2226 55.9286 62.2695 57.813 62.2124 59.6948C62.1084 63.1138 60.4097 65.383 57.1235 66.3262C53.7902 67.2828 50.3939 67.4123 47.0476 66.3977C43.3827 65.2864 41.7823 62.4826 41.9381 58.8203C42.0188 56.9246 42.5419 55.2171 44.0145 53.9192C45.1352 52.9313 46.4911 52.4291 47.9253 52.1177C49.2788 51.8239 50.6541 51.7187 52.0372 51.7171C53.7952 51.7147 55.5533 51.6986 57.3108 51.7282C57.7977 51.7365 57.9284 51.584 57.9002 51.1178C57.8441 50.1881 57.9343 49.2547 57.8315 48.3231C57.6743 46.8967 56.9251 45.9346 55.596 45.4374C54.0881 44.8736 52.507 44.8435 50.9267 44.8984C49.3132 44.9543 47.7101 45.1201 46.1283 45.4703C44.9851 45.7234 44.4289 45.2782 44.3583 44.1023C44.2447 42.2082 44.5586 41.7292 46.435 41.4015C49.8521 40.8043 53.2828 40.667 56.6724 41.576C58.9977 42.1995 60.8433 43.463 61.7334 45.8243C62.0971 46.7897 62.246 47.7949 62.2436 48.8256C62.2399 50.5656 62.2427 52.3055 62.2427 54.0454C62.2358 54.0452 62.2292 54.0452 62.2226 54.0452ZM57.8909 57.4105C57.8909 56.8905 57.8632 56.3681 57.8995 55.8505C57.9293 55.4257 57.7955 55.2983 57.3636 55.3033C55.4627 55.326 53.561 55.3118 51.6598 55.3137C50.9229 55.3144 50.1929 55.3952 49.4714 55.5413C47.4499 55.9502 46.5349 56.8981 46.3199 58.7943C46.1047 60.6964 46.932 62.2129 48.658 62.7305C51.0384 63.4444 53.4468 63.3445 55.7875 62.5129C57.0304 62.0715 57.6579 61.076 57.8164 59.7744C57.9125 58.9875 57.886 58.1988 57.8909 57.4105Z" fill="#BAD000"/>
<path id="Vector_6" d="M131.999 27.9573C131.999 28.7633 132.003 29.5696 131.998 30.3757C131.994 31.0995 131.632 31.4919 130.926 31.4947C129.278 31.5016 127.63 31.4966 125.982 31.4808C125.365 31.4746 124.959 31.1026 124.951 30.4784C124.928 28.7771 124.926 27.0745 124.955 25.3732C124.966 24.7128 125.369 24.3697 126.035 24.3661C127.648 24.3571 129.26 24.3574 130.872 24.3654C131.633 24.3692 131.994 24.7362 131.998 25.4847C132.003 26.309 131.999 27.133 131.999 27.9573Z" fill="#BAD000"/>
<path id="Vector_7" d="M120.171 21.9325C120.171 21.3948 120.164 20.8568 120.173 20.3193C120.183 19.7952 120.404 19.5814 120.932 19.5795C122.025 19.5753 123.118 19.5748 124.212 19.5798C124.734 19.5821 124.97 19.7995 124.977 20.323C124.991 21.4163 124.99 22.5098 124.979 23.6031C124.973 24.1302 124.711 24.3973 124.179 24.4044C123.104 24.4181 122.028 24.4155 120.953 24.4025C120.419 24.3961 120.173 24.1342 120.165 23.5991C120.156 23.0435 120.163 22.4878 120.163 21.9323C120.166 21.9325 120.169 21.9325 120.171 21.9325Z" fill="#BAD000"/>
</g>
</g>
</g>
</g>
</svg>
