<svg width="150" height="96" viewBox="0 0 150 96" fill="none" xmlns="http://www.w3.org/2000/svg">
<g id="Ingenico" style="mix-blend-mode:luminosity">
<g id="Ingenico_2">
<g id="Group">
<path id="path5692" d="M15.2891 58.9594V41.8379H19.112V58.9594H15.2891Z" fill="#4A4F55"/>
<path id="path5694" d="M23.9238 32.8828H91.9575V35.9927H23.9238V32.8828Z" fill="#4A4F55"/>
<path id="path5696" d="M48.9415 66.0138C46.5188 66.0138 44.3019 65.5111 42.9289 65.1044L43.5131 61.8435C44.9714 62.1877 47.1017 62.5016 48.2986 62.5016C50.8375 62.5016 52.5592 62.0633 52.5592 59.0526C52.6173 58.9901 52.5592 58.2056 52.5592 58.1122C51.771 58.7387 50.6626 59.2408 49.4954 59.2408C45.848 59.2408 41.7617 58.2378 41.7617 50.4915C41.7617 44.6595 45.5266 41.5547 50.0783 41.5547C51.8885 41.5547 53.871 41.8054 56.3525 42.2141V59.4909C56.3537 64.289 52.3268 66.0138 48.9415 66.0138ZM52.5308 45.161C51.8897 45.0985 51.1596 44.9728 50.0493 44.9728C46.8409 44.9728 45.5556 47.3248 45.5556 50.5231C45.5556 54.5999 47.1895 56.0103 49.7 56.0103C50.8375 56.0103 51.8 55.5397 52.5301 55.1633V45.161H52.5308Z" fill="#4A4F55"/>
<path id="path5698" d="M63.7376 51.5583C63.7667 55.2897 65.9273 55.8227 68.7871 55.8227C69.8962 55.8227 71.8503 55.6655 73.1052 55.3844L73.6894 58.5827C72.4345 59.0211 70.0124 59.2408 68.0854 59.2408C63.0953 59.2408 59.9141 57.3903 59.9141 50.6798C59.9141 43.7185 63.1831 41.4297 67.6774 41.4297C72.288 41.4297 74.1555 44.6912 74.1555 50.0526V51.5583H63.7376ZM67.3275 44.5661C65.693 44.5661 64.0004 45.7566 63.8261 48.6417H70.1873C70.217 46.0086 68.9614 44.5661 67.3275 44.5661Z" fill="#4A4F55"/>
<path id="path5700" d="M96.7676 58.9594V41.8379H100.591V58.9594H96.7676Z" fill="#4A4F55"/>
<path id="path5702" d="M116.178 45.5378C115.128 45.0989 114.135 44.7856 112.53 44.7856C110.079 44.7856 108.211 46.2913 108.211 50.305C108.211 54.162 109.174 55.8856 113.376 55.8856C114.689 55.8856 115.564 55.6355 116.616 55.4789L117.141 58.6765C115.886 58.9582 114.836 59.2412 113.114 59.2412C106.694 59.2412 104.271 56.6384 104.271 50.2418C104.271 44.8165 107.482 41.3984 112.531 41.3984C114.806 41.3984 116.236 41.869 117.286 42.4961L116.178 45.5378Z" fill="#4A4F55"/>
<path id="path5704" d="M126.947 59.3353C122.044 59.3353 119.301 56.0441 119.301 50.5557C119.301 44.7856 122.483 41.3984 127.21 41.3984C132.52 41.3984 135 44.6909 135 50.3984C135 56.2949 131.557 59.3353 126.947 59.3353ZM127.122 44.6915C124 44.6915 123.153 47.4515 123.153 50.4294C123.153 53.6283 124.116 56.0113 127.18 56.0113C130.303 56.0113 131.061 53.5033 131.061 50.3984C131.062 47.4824 130.303 44.6915 127.122 44.6915Z" fill="#4A4F55"/>
<path id="circle5706" d="M17.2004 36.6372C18.4157 36.6372 19.4008 35.652 19.4008 34.4367C19.4008 33.2215 18.4157 32.2363 17.2004 32.2363C15.9852 32.2363 15 33.2215 15 34.4367C15 35.652 15.9852 36.6372 17.2004 36.6372Z" fill="#4A4F55"/>
<path id="circle5708" d="M98.6789 36.6372C99.8942 36.6372 100.879 35.652 100.879 34.4367C100.879 33.2215 99.8942 32.2363 98.6789 32.2363C97.4637 32.2363 96.4785 33.2215 96.4785 34.4367C96.4785 35.652 97.4637 36.6372 98.6789 36.6372Z" fill="#4A4F55"/>
<path id="path5710" d="M33.1236 41.3672C30.7022 41.3672 28.863 42.8091 27.783 43.6245V43.5897C27.7451 43.6308 27.706 43.6725 27.6681 43.7141C27.2923 42.3341 26.3032 41.9362 25.4051 41.8365H23.9316V58.9579H27.7836V46.4148C28.5434 45.9752 30.2942 44.9407 31.899 44.9407C34.0577 44.9407 34.4961 46.0706 34.4961 48.547V58.9579H38.319V48.0771C38.3177 44.5655 37.9982 41.3672 33.1236 41.3672Z" fill="#4A4F55"/>
<path id="path5712" d="M86.7721 41.3672C84.3506 41.3672 82.5114 42.8091 81.4321 43.6245V43.5897C81.3929 43.6308 81.3538 43.6725 81.3165 43.7141C80.9401 42.3341 79.9517 41.9362 79.0529 41.8365H77.5801V58.9579H81.4321V46.4148C82.19 45.9752 83.9413 44.9407 85.5468 44.9407C87.7056 44.9407 88.1432 46.0706 88.1432 48.547V58.9579H91.9662V48.0771C91.9668 44.5655 91.6453 41.3672 86.7721 41.3672Z" fill="#4A4F55"/>
</g>
</g>
</g>
</svg>
