<svg width="150" height="96" viewBox="0 0 150 96" fill="none" xmlns="http://www.w3.org/2000/svg">
<g id="Maestro" style="mix-blend-mode:luminosity">
<g id="Maestro_2">
<g id="Group">
<g id="Group_2">
<path id="Vector" d="M88.1226 71.5894H61.875V24.418H88.1226V71.5894Z" fill="#6C6BBD"/>
<g id="Group_3">
<path id="Vector_2" d="M63.5565 48C63.5565 38.4311 68.0368 29.9073 75.0137 24.4143C69.9117 20.3975 63.4726 18 56.4747 18C39.9078 18 26.4785 31.4312 26.4785 48C26.4785 64.5688 39.9078 78 56.4747 78C63.4726 78 69.9117 75.6025 75.0137 71.5857C68.0368 66.0927 63.5565 57.5689 63.5565 48Z" fill="#EB001B"/>
</g>
<g id="Group_4">
<path id="Vector_3" d="M123.521 48C123.521 64.5688 110.092 78 93.5253 78C86.5274 78 80.0883 75.6025 74.9844 71.5857C81.9632 66.0927 86.4435 57.5689 86.4435 48C86.4435 38.4311 81.9632 29.9073 74.9844 24.4143C80.0883 20.3975 86.5274 18 93.5253 18C110.092 18 123.521 31.4312 123.521 48Z" fill="#0099DF"/>
</g>
</g>
<g id="Group_5">
<path id="Vector_4" d="M102.046 42.8703C102.475 42.8703 103.093 42.9524 103.564 43.1379L102.907 45.147C102.456 44.9616 102.006 44.9006 101.574 44.9006C100.18 44.9006 99.4826 45.8018 99.4826 47.4214V52.9183H97.3491V43.1167H99.4615V44.3067C100.015 43.4453 100.816 42.8703 102.046 42.8703ZM94.1641 45.0648H90.6786V49.4939C90.6786 50.4773 91.026 51.1345 92.0939 51.1345C92.6478 51.1345 93.3449 50.9491 93.9787 50.5806L94.5936 52.4043C93.9176 52.8761 92.852 53.1647 91.9296 53.1647C89.4065 53.1647 88.5263 51.8105 88.5263 49.5338V45.0648H86.5359V43.1167H88.5263V40.1429H90.6786V43.1167H94.1641V45.0648ZM66.8695 47.1561C67.0971 45.7408 67.9562 44.7762 69.4748 44.7762C70.8478 44.7762 71.7303 45.6375 71.9557 47.1561H66.8695ZM74.1713 48.0175C74.1502 44.9616 72.2631 42.8703 69.5147 42.8703C66.6441 42.8703 64.635 44.9616 64.635 48.0175C64.635 51.1321 66.7263 53.1624 69.6602 53.1624C71.1365 53.1624 72.4885 52.7939 73.6784 51.7893L72.6316 50.2097C71.8125 50.8669 70.7657 51.2354 69.7822 51.2354C68.4092 51.2354 67.1582 50.5994 66.8507 48.8367H74.1291C74.1502 48.5691 74.1713 48.3039 74.1713 48.0175ZM83.541 45.6188C82.9472 45.2479 81.7384 44.7762 80.4874 44.7762C79.3186 44.7762 78.6215 45.208 78.6215 45.9262C78.6215 46.5811 79.3585 46.7665 80.2809 46.8886L81.2855 47.0317C83.419 47.3416 84.7099 48.2428 84.7099 49.9656C84.7099 51.8316 83.0693 53.1647 80.241 53.1647C78.6402 53.1647 77.1639 52.754 75.995 51.8926L76.9996 50.2309C77.7178 50.7848 78.7858 51.2565 80.2621 51.2565C81.7173 51.2565 82.4966 50.827 82.4966 50.0666C82.4966 49.515 81.9426 49.2052 80.7738 49.0432L79.7692 48.9C77.5747 48.5902 76.3847 47.6068 76.3847 46.0084C76.3847 44.0603 77.9854 42.8703 80.4663 42.8703C82.0248 42.8703 83.4401 43.22 84.4634 43.896L83.541 45.6188ZM109.84 44.8959C109.402 44.8959 108.996 44.9733 108.618 45.1259C108.242 45.2808 107.916 45.4967 107.641 45.7737C107.367 46.0506 107.151 46.3839 106.993 46.7712C106.836 47.1585 106.759 47.5857 106.759 48.0504C106.759 48.5175 106.836 48.9423 106.993 49.3296C107.151 49.7168 107.367 50.0501 107.641 50.3271C107.916 50.604 108.242 50.82 108.618 50.9749C108.996 51.1298 109.402 51.2049 109.84 51.2049C110.279 51.2049 110.688 51.1298 111.063 50.9749C111.441 50.82 111.77 50.604 112.044 50.3271C112.324 50.0501 112.54 49.7168 112.699 49.3296C112.857 48.9423 112.934 48.5175 112.934 48.0504C112.934 47.5857 112.857 47.1585 112.699 46.7712C112.54 46.3839 112.324 46.0506 112.044 45.7737C111.77 45.4967 111.441 45.2808 111.063 45.1259C110.688 44.9733 110.279 44.8959 109.84 44.8959ZM109.84 42.8703C110.601 42.8703 111.305 43.0017 111.953 43.267C112.601 43.5298 113.162 43.8936 113.633 44.356C114.108 44.8184 114.476 45.3653 114.744 45.9943C115.011 46.6257 115.145 47.311 115.145 48.0504C115.145 48.7897 115.011 49.4751 114.744 50.1065C114.476 50.7355 114.108 51.2847 113.633 51.7471C113.162 52.2095 112.601 52.5709 111.953 52.8362C111.305 53.099 110.601 53.2305 109.84 53.2305C109.08 53.2305 108.376 53.099 107.728 52.8362C107.08 52.5709 106.524 52.2095 106.055 51.7471C105.585 51.2847 105.217 50.7355 104.949 50.1065C104.682 49.4751 104.548 48.7897 104.548 48.0504C104.548 47.311 104.682 46.6257 104.949 45.9943C105.217 45.3653 105.585 44.8184 106.055 44.356C106.524 43.8936 107.08 43.5298 107.728 43.267C108.376 43.0017 109.08 42.8703 109.84 42.8703ZM54.411 48.0175C54.411 46.2947 55.5399 44.8794 57.3848 44.8794C59.1474 44.8794 60.3374 46.2337 60.3374 48.0175C60.3374 49.8013 59.1474 51.1533 57.3848 51.1533C55.5399 51.1533 54.411 49.7403 54.411 48.0175ZM62.3466 48.0175V43.1167H60.2154V44.3067C59.5371 43.4242 58.5137 42.8703 57.1195 42.8703C54.3711 42.8703 52.2188 45.0226 52.2188 48.0175C52.2188 51.0101 54.3711 53.1647 57.1195 53.1647C58.5137 53.1647 59.5371 52.6108 60.2154 51.7283V52.9183H62.3466V48.0175ZM50.3317 52.9183V46.7665C50.3317 44.4499 48.8553 42.8914 46.4777 42.8703C45.2267 42.8492 43.9334 43.2388 43.0321 44.6142C42.3562 43.5275 41.2882 42.8703 39.7908 42.8703C38.7463 42.8703 37.7206 43.1778 36.9202 44.3255V43.1167H34.7891V52.9183H36.9414V47.4847C36.9414 45.7831 37.8849 44.8794 39.3401 44.8794C40.7554 44.8794 41.4737 45.8018 41.4737 47.4636V52.9183H43.626V47.4847C43.626 45.7831 44.6117 44.8794 46.0247 44.8794C47.4823 44.8794 48.1794 45.8018 48.1794 47.4636V52.9183H50.3317Z" fill="white"/>
</g>
</g>
</g>
</g>
</svg>
