<svg width="150" height="96" viewBox="0 0 150 96" fill="none" xmlns="http://www.w3.org/2000/svg">
<g id="Discover" style="mix-blend-mode:luminosity">
<g id="Discover_2">
<g id="Group">
<path id="Vector" d="M23.1652 38.918H18V56.9574H23.1378C25.8698 56.9574 27.8426 56.3129 29.5742 54.8749C31.632 53.172 32.849 50.6051 32.849 47.9501C32.8496 42.627 28.8718 38.918 23.1652 38.918ZM27.2759 52.4696C26.17 53.4679 24.7343 53.9033 22.4607 53.9033H21.5166V41.9747H22.4607C24.7343 41.9747 26.1139 42.3812 27.2759 43.4334C28.4929 44.5168 29.2247 46.1963 29.2247 47.9239C29.2247 49.6561 28.4929 51.3865 27.2759 52.4696Z" fill="#231F20"/>
<path id="Vector_2" d="M37.9876 38.918H34.4688V56.9574H37.9876V38.918Z" fill="#231F20"/>
<path id="Vector_3" d="M46.5908 45.8379C44.4794 45.0568 43.8594 44.5413 43.8594 43.5669C43.8594 42.4302 44.9641 41.5673 46.4804 41.5673C47.535 41.5673 48.4011 42.0003 49.3179 43.0281L51.159 40.6173C49.6461 39.2937 47.8358 38.6172 45.8581 38.6172C42.6663 38.6172 40.2316 40.8337 40.2316 43.7861C40.2316 46.2715 41.3651 47.5438 44.6699 48.7329C46.0477 49.2187 46.7487 49.5423 47.1025 49.7601C47.8055 50.2191 48.1576 50.8694 48.1576 51.6266C48.1576 53.0882 46.9956 54.171 45.4256 54.171C43.7473 54.171 42.3954 53.3317 41.5855 51.7652L39.3125 53.9543C40.9338 56.3339 42.8806 57.3888 45.5582 57.3888C49.2147 57.3888 51.7799 54.9576 51.7799 51.4655C51.7793 48.5992 50.5937 47.3015 46.5908 45.8379Z" fill="#231F20"/>
<path id="Vector_4" d="M52.8906 47.9485C52.8906 53.2508 57.0546 57.3624 62.4125 57.3624C63.9275 57.3624 65.2246 57.0644 66.8243 56.3113V52.1692C65.4174 53.5773 64.1715 54.1449 62.5765 54.1449C59.0326 54.1449 56.5175 51.5754 56.5175 47.9223C56.5175 44.459 59.1124 41.7264 62.4131 41.7264C64.0914 41.7264 65.3618 42.3255 66.8249 43.7563V39.6159C65.2802 38.8322 64.0105 38.5078 62.4961 38.5078C57.1641 38.5087 52.8906 42.7038 52.8906 47.9485Z" fill="#231F20"/>
<path id="Vector_5" d="M94.7233 51.035L89.9125 38.918H86.0684L93.7244 57.4204H95.6177L103.411 38.918H99.5964L94.7233 51.035Z" fill="#231F20"/>
<path id="Vector_6" d="M105.002 56.9574H114.981V53.9039H108.518V49.0346H114.743V45.9787H108.518V41.9747H114.981V38.918H105.002V56.9574Z" fill="#231F20"/>
<path id="Vector_7" d="M128.912 44.2437C128.912 40.8663 126.586 38.918 122.528 38.918H117.311V56.9574H120.825V49.7108H121.284L126.154 56.9577H130.482L124.803 49.3576C127.453 48.8188 128.912 47.0059 128.912 44.2437ZM121.853 47.2231H120.825V41.7594H121.909C124.1 41.7594 125.292 42.6777 125.292 44.4332C125.292 46.247 124.1 47.2231 121.853 47.2231Z" fill="#231F20"/>
<g id="MarkingBase 1">
<path id="Vector_8" d="M77.5692 57.5954C82.8692 57.5954 87.1658 53.2989 87.1658 47.9989C87.1658 42.6989 82.8692 38.4023 77.5692 38.4023C72.2692 38.4023 67.9727 42.6989 67.9727 47.9989C67.9727 53.2989 72.2692 57.5954 77.5692 57.5954Z" fill="url(#paint0_linear_76_5207)"/>
<path id="Vector_9" opacity="0.65" d="M77.5692 57.5954C82.8692 57.5954 87.1658 53.2989 87.1658 47.9989C87.1658 42.6989 82.8692 38.4023 77.5692 38.4023C72.2692 38.4023 67.9727 42.6989 67.9727 47.9989C67.9727 53.2989 72.2692 57.5954 77.5692 57.5954Z" fill="url(#paint1_linear_76_5207)"/>
</g>
<g id="Registered 1">
<path id="Vector_10" d="M131.158 39.5947C131.158 39.2783 130.941 39.1055 130.558 39.1055H130.049V40.691H130.427V40.0759L130.871 40.691H131.333L130.811 40.0373C131.035 39.9773 131.158 39.8148 131.158 39.5947ZM130.491 39.8114H130.427V39.3968H130.495C130.682 39.3968 130.78 39.4642 130.78 39.6008C130.78 39.7405 130.681 39.8114 130.491 39.8114Z" fill="#231F20"/>
<path id="Vector_11" d="M130.635 38.5137C129.865 38.5137 129.254 39.128 129.254 39.8958C129.254 40.6634 129.872 41.2785 130.635 41.2785C131.385 41.2785 131.999 40.6565 131.999 39.8958C131.999 39.1383 131.385 38.5137 130.635 38.5137ZM130.629 41.0313C130.023 41.0313 129.527 40.5271 129.527 39.8978C129.527 39.2665 130.017 38.7626 130.629 38.7626C131.232 38.7626 131.723 39.2781 131.723 39.8978C131.723 40.5216 131.232 41.0313 130.629 41.0313Z" fill="#231F20"/>
</g>
</g>
</g>
</g>
<defs>
<linearGradient id="paint0_linear_76_5207" x1="82.4813" y1="55.6898" x2="75.8367" y2="45.2864" gradientUnits="userSpaceOnUse">
<stop stop-color="#F89F21"/>
<stop offset="0.2502" stop-color="#F79A23"/>
<stop offset="0.5331" stop-color="#F78E22"/>
<stop offset="0.6196" stop-color="#F68721"/>
<stop offset="0.7232" stop-color="#F48220"/>
<stop offset="1" stop-color="#F27623"/>
</linearGradient>
<linearGradient id="paint1_linear_76_5207" x1="81.4317" y1="55.5484" x2="71.7205" y2="36.5672" gradientUnits="userSpaceOnUse">
<stop stop-color="#F68721" stop-opacity="0"/>
<stop offset="0.3587" stop-color="#E27027" stop-opacity="0.2704"/>
<stop offset="0.703" stop-color="#D4612C" stop-opacity="0.5299"/>
<stop offset="0.9816" stop-color="#D15D2D" stop-opacity="0.74"/>
</linearGradient>
</defs>
</svg>
