<svg width="150" height="96" viewBox="0 0 150 96" fill="none" xmlns="http://www.w3.org/2000/svg">
<g id="Amazon" style="mix-blend-mode:luminosity">
<g id="Amazon_2">
<g id="Group">
<g id="Group_2">
<path id="Vector" fill-rule="evenodd" clip-rule="evenodd" d="M88.7959 61.6304C82.1257 66.4815 72.5751 69.0586 64.389 69.0586C52.8677 69.0586 42.4076 64.8139 34.5246 57.6889C33.9182 57.0825 34.5246 56.3246 35.131 56.7794C43.6204 61.782 54.2321 64.6623 64.9954 64.6623C72.272 64.6623 80.4581 63.1464 87.8863 59.9629C88.9475 59.6597 89.8571 60.8724 88.7959 61.6304Z" fill="#FF9201"/>
<path id="Vector_2" fill-rule="evenodd" clip-rule="evenodd" d="M91.5249 58.448C90.6153 57.3868 85.9158 57.9932 83.7935 58.1448C83.1871 58.2964 83.0355 57.69 83.6419 57.2352C87.4318 54.5065 93.6472 55.416 94.4052 56.174C95.1631 57.0836 94.2536 63.299 90.6153 66.331C90.0089 66.7857 89.5541 66.4825 89.8573 65.8762C90.4637 64.057 92.2829 59.6607 91.5249 58.448Z" fill="#FF9201"/>
</g>
<path id="Vector_3" fill-rule="evenodd" clip-rule="evenodd" d="M83.9448 38.5898V36.0126C83.9448 35.5579 84.2479 35.4062 84.5511 35.4062H96.0724C96.3756 35.4062 96.6788 35.7095 96.6788 36.0126V38.2866C96.6788 38.5898 96.3756 39.1961 95.7692 39.9541L89.7054 48.5951C91.9793 48.5951 94.2533 48.8983 96.3757 49.9594C96.8304 50.2626 96.982 50.5658 96.982 51.0206V53.7493C96.982 54.0525 96.5272 54.5073 96.0724 54.3557C92.4341 52.5366 87.7346 52.2334 83.7931 54.3557C83.3383 54.5073 83.0352 54.2041 83.0352 53.7493V51.0206C83.0352 50.5658 83.0352 49.9594 83.49 49.2015L90.4634 39.1961H84.3996C84.248 39.1961 83.9448 38.893 83.9448 38.5898Z" fill="#333333"/>
<path id="Vector_4" fill-rule="evenodd" clip-rule="evenodd" d="M41.6497 54.6594H38.1631C37.8599 54.6594 37.5566 54.3562 37.5566 54.053V36.0131C37.5566 35.7099 37.8599 35.4067 38.1631 35.4067H41.4982C41.8014 35.4067 42.1045 35.7099 42.1045 36.0131V38.4386C43.0141 36.1647 44.5301 35.1035 46.804 35.1035C49.078 35.1035 50.4423 36.1647 51.3519 38.4386C52.2615 36.1647 54.0806 35.1035 56.203 35.1035C57.7189 35.1035 59.2348 35.7099 60.296 37.0743C61.3572 38.5902 61.2056 40.8642 61.2056 42.6833V54.053C61.2056 54.3562 60.9024 54.6594 60.5992 54.6594H57.1125C56.8093 54.6594 56.5061 54.3562 56.5061 54.053V44.5024C56.5061 43.7445 56.5061 41.7737 56.3545 41.1673C56.0514 39.9546 55.2933 39.6514 54.2322 39.6514C53.3226 39.6514 52.4131 40.2578 52.1099 41.1673C51.8067 42.0769 51.8067 43.5929 51.8067 44.654V54.2046C51.8067 54.5078 51.5034 54.811 51.2003 54.811H47.7136C47.4104 54.811 47.1072 54.5078 47.1072 54.2046V44.654C47.1072 42.6833 47.4104 39.6514 44.9849 39.6514C42.4077 39.6514 42.5594 42.5317 42.5594 44.654V54.2046C42.2562 54.3562 41.9529 54.6594 41.6497 54.6594Z" fill="#333333"/>
<path id="Vector_5" fill-rule="evenodd" clip-rule="evenodd" d="M106.836 34.9512C112.142 34.9512 114.871 39.4991 114.871 45.1081C114.871 50.5655 111.687 54.9618 106.836 54.9618C101.682 54.9618 98.953 50.4139 98.953 44.8049C98.8014 39.3474 101.682 34.9512 106.836 34.9512ZM106.836 38.7411C104.259 38.7411 104.107 42.2278 104.107 44.5017C104.107 46.7756 104.107 51.4751 106.836 51.4751C109.565 51.4751 109.716 47.6852 109.716 45.4113C109.716 43.8953 109.716 42.0762 109.262 40.5602C108.807 39.1959 107.897 38.7411 106.836 38.7411Z" fill="#333333"/>
<path id="Vector_6" fill-rule="evenodd" clip-rule="evenodd" d="M121.691 54.6586H118.204C117.901 54.6586 117.598 54.3554 117.598 54.0522V36.0124C117.598 35.7092 117.901 35.406 118.204 35.406H121.539C121.842 35.406 122.146 35.5576 122.146 35.8608V38.5895C123.207 36.164 124.571 34.9512 126.997 34.9512C128.512 34.9512 130.18 35.5576 131.09 37.0735C131.999 38.5895 131.999 41.015 131.999 42.6826V54.0522C131.999 54.3554 131.696 54.6586 131.393 54.6586H127.906C127.603 54.6586 127.3 54.3554 127.3 54.0522V44.1985C127.3 42.2278 127.603 39.3475 125.026 39.3475C124.116 39.3475 123.358 39.9538 123.055 40.8634C122.6 41.9246 122.449 43.1374 122.449 44.3501V54.0522C122.297 54.3554 121.994 54.6586 121.691 54.6586Z" fill="#333333"/>
<path id="Vector_7" fill-rule="evenodd" clip-rule="evenodd" d="M74.6972 46.0189C74.6972 47.3832 74.6972 48.596 74.0908 49.8087C73.4845 50.8699 72.5748 51.4763 71.6652 51.4763C70.3009 51.4763 69.543 50.4151 69.543 48.8992C69.543 45.8673 72.2717 45.4125 74.8488 45.4125V46.0189H74.6972ZM78.1839 54.6598C77.8807 54.8114 77.5776 54.8114 77.426 54.8114C76.2132 53.9018 76.0615 53.447 75.4551 52.3859C73.4844 54.3566 72.1201 54.963 69.6945 54.963C66.6626 54.963 64.3887 53.1439 64.3887 49.5056C64.3887 46.6252 65.9046 44.6545 68.1786 43.7449C70.1493 42.8353 72.7265 42.6837 74.8488 42.5321V42.0774C74.8488 41.1678 74.8488 40.2582 74.394 39.5002C73.9393 38.8939 73.1812 38.5907 72.4232 38.5907C71.0589 38.5907 69.8462 39.3486 69.543 40.713C69.543 41.0162 69.2397 41.3194 68.9365 41.3194L65.4499 41.0162C65.1467 41.0162 64.8435 40.713 64.9951 40.2582C65.7531 36.1651 69.543 34.8008 72.8781 34.8008C74.5456 34.8008 76.8196 35.2556 78.1839 36.6199C79.8515 38.2875 79.6999 40.4098 79.6999 42.6838V48.1412C79.6999 49.8088 80.4578 50.5667 81.0642 51.4763C81.2158 51.7795 81.3674 52.2343 81.0642 52.3859C80.1546 52.9923 78.9419 54.0534 78.1839 54.6598Z" fill="#333333"/>
<path id="Vector_8" fill-rule="evenodd" clip-rule="evenodd" d="M28.46 46.0189C28.46 47.3832 28.4601 48.596 27.8537 49.8087C27.2473 50.8699 26.3377 51.4763 25.4281 51.4763C24.0638 51.4763 23.3058 50.4151 23.3058 48.8992C23.3058 45.8673 26.0346 45.4125 28.6117 45.4125V46.0189H28.46ZM31.9468 54.6598C31.6436 54.8114 31.3404 54.8114 31.0372 54.8114C29.8244 53.9018 29.6729 53.447 29.0665 52.3859C27.0957 54.3566 25.7314 54.963 23.3058 54.963C20.2739 54.963 18 53.1439 18 49.5056C18 46.6252 19.516 44.6545 21.7899 43.7449C23.7606 42.8353 26.3377 42.6837 28.46 42.5321V42.0774C28.46 41.1678 28.4601 40.2582 28.0053 39.5002C27.5505 38.8939 26.7925 38.5907 26.0346 38.5907C24.6702 38.5907 23.4574 39.3486 23.1542 40.713C23.1542 41.0162 22.8511 41.3194 22.5479 41.3194L19.0611 41.0162C18.758 41.0162 18.4548 40.713 18.6064 40.2582C19.3644 36.1651 23.1542 34.8008 26.4893 34.8008C28.1569 34.8008 30.4308 35.2556 31.7952 36.6199C33.4627 38.2875 33.3111 40.4098 33.3111 42.6838V48.1412C33.3111 49.8088 34.0691 50.5667 34.6755 51.4763C34.8271 51.7795 34.9787 52.2343 34.6755 52.3859C33.9175 52.9923 32.7048 54.0534 31.9468 54.6598Z" fill="#333333"/>
</g>
</g>
</g>
</svg>
