<svg width="150" height="96" viewBox="0 0 150 96" fill="none" xmlns="http://www.w3.org/2000/svg">
<g id="PaysafeCard" style="mix-blend-mode:luminosity">
<g id="PaysafeCard_2">
<g id="Group">
<g id="Group_2">
<path id="path2491" d="M38.5351 46.9714C38.5223 46.576 38.3359 46.3719 37.974 46.3585H36.0407C35.5831 46.3865 35.3467 46.6375 35.3357 47.1097V50.5869C35.3467 51.0743 35.6081 51.3229 36.1162 51.3369H37.8881C38.0721 51.3369 38.225 51.2687 38.3468 51.1292C38.4742 51.0244 38.5351 50.8897 38.5351 50.7228V46.9714ZM32.8535 46.4779C32.8663 45.6078 33.0601 44.9467 33.436 44.4947C33.6328 44.3052 33.8789 44.1467 34.1787 44.0158C34.4901 43.8762 34.7917 43.8086 35.0841 43.8086H38.6326C40.1979 43.822 40.9936 44.678 41.0186 46.3786V51.6123C41.007 52.2161 40.7706 52.7401 40.3136 53.1782C39.8609 53.6388 39.3205 53.8734 38.6911 53.8874H35.3357V57.6607H32.8535V46.4779Z" fill="#008AC9"/>
<path id="path2493" d="M45.5004 50.8318C45.5004 50.9775 45.5674 51.0926 45.6984 51.1791C45.8154 51.2827 45.9629 51.3369 46.1493 51.3369H48.0558C48.4865 51.3369 48.7101 51.17 48.7229 50.8318V50.1202C48.7229 49.7315 48.4957 49.5353 48.0375 49.5353H46.1493C45.9007 49.5353 45.7289 49.5767 45.6332 49.6547C45.5449 49.7467 45.5004 49.9289 45.5004 50.1988V50.8318ZM48.7229 46.9099C48.7357 46.5285 48.5133 46.3463 48.0552 46.3585H43.056V43.8086H48.6846C50.3241 43.8354 51.1564 44.6275 51.1845 46.1915V51.5258C51.1704 52.2003 50.9639 52.7566 50.563 53.1989C50.1438 53.6571 49.6034 53.8874 48.9411 53.8874H45.5388C43.8828 53.8734 43.0432 53.1173 43.0176 51.6142V49.556C43.0304 47.9853 43.8328 47.1871 45.4212 47.1597H48.7229V46.9099Z" fill="#008AC9"/>
<path id="path2495" d="M58.1553 55.1103C58.3521 55.0981 58.5227 55.0274 58.661 54.9007C58.7938 54.7825 58.8608 54.6466 58.8608 54.4924V53.8874H55.6828C55.2685 53.8874 54.937 53.8344 54.6897 53.729C54.4283 53.6333 54.1681 53.4548 53.9061 53.2014C53.6581 52.9327 53.4796 52.6518 53.3712 52.3581C53.2584 52.0894 53.2012 51.7476 53.2012 51.3369V43.8086H55.6828V50.529C55.6828 51.0676 55.9027 51.3369 56.3481 51.3369H58.1004C58.3088 51.3369 58.4898 51.2687 58.6415 51.1292C58.7877 51.011 58.8608 50.8708 58.8608 50.7063V43.8086H61.3224V54.9147C61.3083 55.7366 61.0975 56.3946 60.6911 56.8936C60.2786 57.3926 59.7144 57.6479 58.9949 57.6607H53.2012V55.1103H58.1553Z" fill="#008AC9"/>
<path id="path2497" d="M63.2715 51.3369H67.6943C68.0989 51.3229 68.3091 51.1609 68.3219 50.8501V50.621C68.3219 50.5546 68.3018 50.4809 68.2628 50.4017C68.1641 50.2092 68.0428 50.1135 67.8984 50.1135H65.7056C65.0549 50.1007 64.4998 49.8765 64.0331 49.4439C63.5609 49.0442 63.319 48.5525 63.305 47.9755V46.0739C63.3306 44.5903 64.1367 43.8354 65.7245 43.8086H70.8541V46.3585H66.508C65.998 46.3585 65.7409 46.515 65.7409 46.827V47.0738C65.7409 47.3973 66.0035 47.5594 66.5269 47.5594H68.713C69.2955 47.5728 69.7921 47.7958 70.2058 48.2308C70.6237 48.6689 70.8407 49.1898 70.8541 49.7948V51.655C70.8407 52.1778 70.5988 52.6993 70.1339 53.2196C69.9072 53.4749 69.6751 53.6504 69.4429 53.7497C69.2029 53.8411 68.8769 53.8874 68.4608 53.8874H63.2715V51.3369Z" fill="#008AC9"/>
<path id="path2499" d="M75.1015 50.8318C75.1015 50.9775 75.1685 51.0926 75.3026 51.1791C75.4183 51.2827 75.5664 51.3369 75.7504 51.3369H77.6605C78.0913 51.3369 78.3137 51.17 78.3265 50.8318V50.1202C78.3265 49.7315 78.0961 49.5353 77.6398 49.5353H75.7504C75.5024 49.5353 75.3312 49.5767 75.2362 49.6547C75.1478 49.7467 75.1015 49.9289 75.1015 50.1988V50.8318ZM78.3265 46.9099C78.3374 46.5285 78.115 46.3463 77.6562 46.3585H72.6583V43.8086H78.2887C79.9264 43.8354 80.7593 44.6275 80.7849 46.1915V51.5258C80.7715 52.2003 80.5631 52.7566 80.1647 53.1989C79.7485 53.6571 79.2075 53.8874 78.5446 53.8874H75.1393C73.4845 53.8734 72.6442 53.1173 72.6211 51.6142V49.556C72.6321 47.9853 73.4339 47.1871 75.0235 47.1597H78.3265V46.9099Z" fill="#008AC9"/>
<path id="path2501" d="M82.8027 42.3616C82.818 41.6731 83.0714 41.1205 83.5686 40.7061C84.0512 40.2851 84.6848 40.0688 85.4684 40.0566H87.0446V42.52H86.0898C85.5652 42.5322 85.2978 42.7832 85.2862 43.2682V43.808H87.0446V46.3603H85.2862V53.8874H82.8027V42.3616Z" fill="#008AC9"/>
<path id="path2503" d="M94.1033 46.8623V46.8032C94.1033 46.6722 94.0503 46.5607 93.9436 46.4779C93.8279 46.3975 93.6865 46.3585 93.5165 46.3585H91.7886C91.5668 46.3585 91.3883 46.4206 91.25 46.5479C91.0782 46.6655 90.991 46.8203 90.991 47.011V48.0346L94.1033 46.8623ZM91.0306 50.4669V50.6259C91.0306 50.83 91.0836 50.9921 91.1915 51.1097C91.2695 51.2602 91.3743 51.3369 91.5138 51.3369H96.6129V53.8874H91.1915C90.6967 53.8874 90.3111 53.8411 90.0387 53.7485C89.7408 53.6504 89.4733 53.4902 89.2399 53.2672C88.967 52.9972 88.7811 52.7225 88.6879 52.4398C88.5856 52.1449 88.535 51.7537 88.535 51.2663L88.5137 46.1623C88.5411 44.6202 89.3466 43.8354 90.9295 43.8086H94.2757C95.8215 43.8354 96.6044 44.6476 96.6294 46.2494V48.2655L91.0306 50.4669Z" fill="#008AC9"/>
<path id="path2505" d="M101.885 53.8868C101.509 53.8868 101.166 53.8521 100.854 53.7887C100.528 53.7357 100.204 53.5846 99.8716 53.3293C99.531 53.0326 99.2952 52.6999 99.166 52.3325C99.0295 51.9712 98.9637 51.5618 98.9637 51.1012V46.342C98.9497 45.9539 98.9887 45.6133 99.0795 45.3178C99.163 45.0229 99.3384 44.7341 99.6035 44.4514C99.9057 44.1547 100.214 43.9573 100.539 43.8604C100.853 43.7818 101.205 43.7422 101.601 43.7422H105.405V44.3387H101.689C101.033 44.3387 100.517 44.4733 100.14 44.7432C99.7546 45.0375 99.5578 45.5451 99.5578 46.2604V51.0226C99.5578 51.3577 99.609 51.6836 99.7107 51.998C99.8149 52.3069 99.9885 52.5781 100.238 52.8151C100.508 53.0204 100.778 53.1484 101.04 53.2008C101.314 53.2611 101.607 53.2897 101.919 53.2897H105.465V53.8868H101.885Z" fill="#008AC9"/>
<path id="path2507" d="M115.19 47.7123H110.202C109.605 47.7257 109.137 47.9103 108.8 48.2661C108.452 48.6274 108.279 49.1228 108.279 49.7522V51.2711C108.279 51.5654 108.31 51.8347 108.373 52.0772C108.436 52.3325 108.593 52.5604 108.84 52.756C109.271 53.113 109.748 53.2897 110.269 53.2897H113.291C114.554 53.2763 115.19 52.611 115.19 51.29V47.7123ZM115.783 51.1414C115.783 51.5246 115.753 51.8609 115.704 52.157C115.624 52.4788 115.459 52.7889 115.208 53.0838C114.687 53.6327 114.041 53.9002 113.271 53.8868H110.305C109.534 53.8868 108.91 53.6565 108.426 53.1983C107.932 52.7456 107.682 52.1162 107.682 51.3089V49.7747C107.707 48.0438 108.569 47.1572 110.267 47.117H115.208V46.4456C115.208 45.8924 115.048 45.408 114.729 44.9912C114.527 44.7207 114.288 44.5397 114.016 44.4465C113.741 44.3746 113.433 44.3387 113.089 44.3387H107.699V43.7422H112.809C113.276 43.7422 113.698 43.7751 114.081 43.8397C114.278 43.8787 114.456 43.9554 114.621 44.0663C114.796 44.1717 114.96 44.3259 115.111 44.5282C115.569 45.1192 115.792 45.801 115.783 46.5687V51.1414Z" fill="#008AC9"/>
<path id="path2509" d="M121.359 44.3387C119.975 44.3643 119.294 45.1192 119.319 46.6046V53.8868H118.725V46.6071C118.697 44.6963 119.607 43.7422 121.454 43.7422H122.115V44.3387H121.359Z" fill="#008AC9"/>
<path id="path2511" d="M131.406 44.3411H126.705C126.366 44.3411 126.063 44.3789 125.789 44.4508C125.503 44.5154 125.226 44.689 124.967 44.9717C124.719 45.2294 124.563 45.4847 124.498 45.74C124.411 45.9978 124.371 46.3067 124.385 46.6668V51.3095C124.385 52.0815 124.609 52.6067 125.062 52.8888C125.286 53.0198 125.531 53.1179 125.807 53.1837C126.081 53.2568 126.387 53.2928 126.724 53.2928H128.779C129.547 53.2928 130.175 53.1161 130.658 52.7596C131.143 52.4251 131.389 51.8481 131.406 51.0256V44.3411ZM131.999 51.0664C131.947 52.9881 130.93 53.9301 128.949 53.8905H126.746C126.28 53.8905 125.864 53.8496 125.496 53.7723C125.117 53.6742 124.754 53.4432 124.405 53.0832C124.143 52.7596 123.974 52.4324 123.906 52.0973C123.815 51.7628 123.776 51.3906 123.79 50.9842V46.6515C123.815 44.7 124.798 43.73 126.741 43.7446H131.406V40.4551H131.999V51.0664Z" fill="#008AC9"/>
</g>
<g id="Group 2">
<path id="path2513" d="M19.0655 43.4258C19.2605 43.3399 19.4555 43.2729 19.6504 43.2308C20.0087 41.52 21.524 40.2368 23.3403 40.2368C25.1578 40.2368 26.6737 41.5218 27.0313 43.2321C27.5888 43.3381 28.05 43.5635 28.4095 43.8992C28.4242 43.5708 28.4107 43.2546 28.3718 42.9567C28.1421 40.3721 25.9748 38.3438 23.3323 38.3438C20.6119 38.3438 18.3971 40.5 18.282 43.1955C18.2661 43.4282 18.2612 43.6707 18.2698 43.9242C18.4983 43.7317 18.759 43.5586 19.0655 43.4258Z" fill="#E3001B"/>
<path id="path2515" d="M26.2936 43.8086H20.2312C19.9394 43.8086 19.6372 43.8762 19.3258 44.0158C19.0254 44.1467 18.7793 44.3052 18.5819 44.4947C18.2059 44.9467 18.0134 45.6078 18 46.4779V51.2169C18.0134 52.0888 18.2059 52.7493 18.5819 53.1989C18.7793 53.3915 19.0254 53.5499 19.3258 53.6821C19.6372 53.8186 19.9394 53.8874 20.2312 53.8874H26.2936C27.8595 53.8734 28.6558 53.0143 28.6808 51.3162V46.3786C28.6558 44.678 27.8595 43.822 26.2936 43.8086Z" fill="#E3001B"/>
</g>
</g>
</g>
</g>
</svg>
