<svg width="150" height="96" viewBox="0 0 150 96" fill="none" xmlns="http://www.w3.org/2000/svg">
<g id="Klarna" style="mix-blend-mode:luminosity">
<g id="Klarna_2">
<path id="Vector" fill-rule="evenodd" clip-rule="evenodd" d="M44.6909 60.6991H50.2044V34.8203H44.6909V60.6991ZM79.6028 45.7348V43.4201H79.5334V43.4191H74.7216V43.4201H74.4514V60.6991H79.6658V51.6435C79.6658 49.0159 82.6294 47.8633 84.6633 48.446C84.6835 48.452 84.7037 48.4483 84.7248 48.4483V43.4205C82.5898 43.4205 80.6271 44.3483 79.6028 45.7348ZM61.8666 56.697C59.1654 56.697 56.9762 54.6208 56.9762 52.0593C56.9762 49.4979 59.1654 47.4217 61.8666 47.4217C64.5673 47.4217 66.757 49.4979 66.757 52.0593C66.757 54.6208 64.5673 56.697 61.8666 56.697ZM66.7078 44.6172C65.2203 43.563 63.4046 42.9412 61.4429 42.9412C56.4073 42.9412 52.3252 47.0237 52.3252 52.0593C52.3252 57.0949 56.4073 61.1775 61.4429 61.1775C63.4046 61.1775 65.2203 60.5557 66.7078 59.502V60.6991H71.2117V43.4201H66.7078V44.6172ZM97.6181 42.9545C95.5511 42.9545 93.5953 43.5961 92.2879 45.3662V43.4201H92.2185V43.4191H87.4067V43.4201H87.1365V60.6991H92.3509V51.2478C92.3509 48.6202 94.1132 47.3335 96.2348 47.3335C98.5086 47.3335 99.8156 48.6918 99.8156 51.2119V60.6991H104.983V49.7107C104.983 45.6888 101.786 42.9545 97.6181 42.9545ZM131.19 54.5698C129.397 54.5698 127.943 56.0238 127.943 57.8173C127.943 59.6104 129.397 61.0644 131.19 61.0644C132.984 61.0644 134.438 59.6104 134.438 57.8173C134.438 56.0238 132.984 54.5698 131.19 54.5698ZM116.352 56.697C113.651 56.697 111.462 54.6208 111.462 52.0593C111.462 49.4979 113.651 47.4217 116.352 47.4217C119.053 47.4217 121.242 49.4979 121.242 52.0593C121.242 54.6208 119.053 56.697 116.352 56.697ZM121.194 44.6172C119.706 43.563 117.891 42.9412 115.929 42.9412C110.893 42.9412 106.811 47.0237 106.811 52.0593C106.811 57.0949 110.893 61.1775 115.929 61.1775C117.891 61.1775 119.706 60.5557 121.194 59.502V60.6991H125.697V43.4201H121.194V44.6172ZM128.972 43.7353H129.223C129.381 43.7353 129.448 43.8121 129.448 43.9297C129.448 44.0469 129.404 44.1342 129.223 44.1342H128.972V43.7353ZM128.975 44.3451H129.226L129.438 44.8276H129.689L129.454 44.3047C129.605 44.238 129.682 44.1071 129.682 43.9297C129.682 43.6848 129.495 43.5207 129.223 43.5207H128.744V44.8244H128.975V44.3451ZM20.4375 60.6991H26.1845V34.8203H20.4375V60.6991ZM40.9347 34.8226H35.355C35.241 40.6647 31.8662 45.7076 26.9735 48.2034L35.5471 60.6991H42.5477L34.7544 49.3329C38.6457 45.5155 40.8561 40.3697 40.9347 34.8226ZM129.166 43.1921C129.713 43.1921 130.155 43.6415 130.155 44.1944C130.155 44.7472 129.713 45.1962 129.166 45.1962C128.62 45.1962 128.178 44.7472 128.178 44.1944C128.178 43.6415 128.62 43.1921 129.166 43.1921ZM129.166 45.4342C129.843 45.4342 130.393 44.8777 130.393 44.1944C130.393 43.5106 129.843 42.9545 129.166 42.9545C128.489 42.9545 127.943 43.5106 127.943 44.1944C127.943 44.8777 128.489 45.4342 129.166 45.4342Z" fill="#111111"/>
</g>
</g>
</svg>
