<svg width="150" height="96" viewBox="0 0 150 96" fill="none" xmlns="http://www.w3.org/2000/svg">
<g id="Payone" style="mix-blend-mode:luminosity">
<g id="Payone_2">
<g id="Group">
<path id="Fill 1" fill-rule="evenodd" clip-rule="evenodd" d="M128.142 36.8438H57.9601C56.6801 36.8451 54.143 37.8232 53.4091 40.1685C52.8998 41.7953 51.0259 47.999 51.0259 47.999C51.0259 47.999 49.3702 53.5157 48.9168 54.8867C48.2163 57.0058 47.9103 59.1543 45.6367 59.1543H128.142C130.292 59.1543 132 57.4153 132 55.2731V40.7249C132 38.563 130.258 36.8438 128.142 36.8438Z" fill="#2CADD8"/>
<path id="Fill 2" fill-rule="evenodd" clip-rule="evenodd" d="M46.9115 55.8335C47.4208 54.2066 49.2935 48.0087 49.2952 48.0029C49.2952 48.0029 50.9504 42.4861 51.4036 41.1152C52.1042 38.9968 52.4103 36.8492 54.6816 36.8477H21.8579C19.7547 36.8477 18 38.5369 18 40.729V55.2769C18 57.4194 19.7123 59.1582 21.8579 59.1582H42.3576C43.6368 59.1582 46.1772 58.1804 46.9115 55.8335Z" fill="#004069"/>
<path id="Fill 3" fill-rule="evenodd" clip-rule="evenodd" d="M30.8179 42.7811C30.1603 42.1908 29.195 41.8954 27.9219 41.8954H23.8064C23.5944 41.8954 23.4102 41.9772 23.2548 42.1406C23.099 42.3044 23.0215 42.4927 23.0215 42.7064V53.3134C23.0215 53.5269 23.099 53.7118 23.2548 53.8683C23.4102 54.0251 23.5944 54.1032 23.8064 54.1032H28.0069C29.5626 54.1032 30.715 53.7903 31.4647 53.164C31.8184 52.8514 32.0765 52.4847 32.2392 52.0649C32.4018 51.6454 32.4831 51.2113 32.4831 50.7629C32.4831 50.3148 32.4196 49.9272 32.2923 49.5998C31.9387 48.7321 31.2104 48.1132 30.1072 47.743C31.2386 47.2309 31.8044 46.3418 31.8044 45.0753C31.8044 44.1361 31.4755 43.3716 30.8179 42.7811ZM30.1708 45.9717C29.8878 46.7686 28.9966 47.1668 27.4978 47.1668H24.6126V43.3891H27.7949C28.601 43.3891 29.2195 43.5529 29.6511 43.8802C30.0823 44.2076 30.2981 44.6415 30.2981 45.1821C30.2981 45.4667 30.2556 45.73 30.1708 45.9717ZM24.6126 52.6091V48.5969H27.8796C28.8837 48.5969 29.6475 48.7567 30.1708 49.0769C30.6939 49.397 30.9557 49.9059 30.9557 50.6028C30.9557 50.8877 30.9061 51.1578 30.8073 51.414C30.4818 52.2111 29.4989 52.6091 27.8585 52.6091H24.6126ZM37.6473 52.5558C37.0814 52.4063 36.6747 52.2749 36.4274 52.1611C36.1798 52.0474 35.9746 51.9903 35.8122 51.9903C35.6495 51.9903 35.5046 52.0649 35.3771 52.2142C35.2499 52.3636 35.1864 52.5237 35.1864 52.6946C35.1864 52.8653 35.2357 53.0182 35.3348 53.1534C35.4335 53.2888 35.547 53.3847 35.6744 53.4415C36.9612 53.9965 38.34 54.2739 39.8111 54.2739C41.1546 54.2739 42.2367 53.9537 43.0569 53.3134C43.863 52.6877 44.2663 51.8764 44.2663 50.8803C44.252 49.8132 43.863 49.0022 43.0995 48.4473C42.7458 48.2057 42.3533 48.0028 41.922 47.8391C41.4904 47.6757 41.0417 47.5369 40.5749 47.423C40.1082 47.3092 39.6554 47.1988 39.2172 47.0921C38.7785 46.9854 38.3823 46.8541 38.0291 46.6974C37.2655 46.3418 36.8836 45.8366 36.8836 45.1821C36.8836 44.556 37.1806 44.0652 37.7746 43.7093C38.3543 43.3678 39.0899 43.197 39.9809 43.197C40.9425 43.197 41.8053 43.3325 42.569 43.6026C42.8237 43.688 43.0251 43.7308 43.1737 43.7308C43.3222 43.7308 43.4562 43.6527 43.5768 43.4959C43.6968 43.3396 43.7569 43.1758 43.7569 43.005C43.7428 42.6495 43.5731 42.4147 43.2479 42.3007C42.2296 41.9165 41.0841 41.7246 39.8111 41.7246C38.411 41.7246 37.2936 42.0802 36.4592 42.7916C35.6813 43.4461 35.2924 44.2856 35.2924 45.3099C35.3063 46.2636 35.6954 47.0317 36.4592 47.6152C36.7987 47.8711 37.1944 48.0812 37.6473 48.2448C38.0998 48.4083 38.5522 48.5541 39.005 48.682C39.4573 48.8103 39.9065 48.9311 40.3521 49.0449C40.7976 49.159 41.1901 49.2872 41.5295 49.429C42.307 49.7566 42.6963 50.1974 42.6963 50.7525C42.6819 52.1044 41.6636 52.7799 39.6415 52.7799C38.8777 52.7799 38.2128 52.7052 37.6473 52.5558Z" fill="#FFFFFE"/>
<path id="Fill 4" fill-rule="evenodd" clip-rule="evenodd" d="M57.3611 41.8934C57.1489 41.8934 56.9649 41.9755 56.8095 42.1389C56.6537 42.3026 56.5762 42.4911 56.5762 42.7044V53.397C56.5762 53.6103 56.6537 53.7954 56.8095 53.9519C56.9649 54.1083 57.1489 54.1865 57.3611 54.1865C57.5872 54.1865 57.7781 54.1083 57.9337 53.9519C58.0893 53.7954 58.1673 53.6103 58.1673 53.397V49.662H61.3283C62.9262 49.662 64.1356 49.2425 64.956 48.4028C65.6349 47.7197 65.9743 46.8448 65.9743 45.7778C65.9601 44.6966 65.6205 43.8215 64.956 43.1525C64.1499 42.3132 62.9406 41.8934 61.3283 41.8934H57.3611ZM58.1673 48.1681V43.3873H61.1798C61.8163 43.4018 62.3466 43.4799 62.7709 43.6222C63.8456 43.9778 64.3832 44.6966 64.3832 45.7778C64.397 46.4605 64.1923 47.0014 63.7679 47.3997C63.2302 47.9118 62.3677 48.1681 61.1798 48.1681H58.1673ZM73.252 42.5338C73.0398 42.0502 72.7004 41.8079 72.2337 41.8079H72.0639C71.5829 41.8079 71.2434 42.0502 71.0456 42.5338L66.633 53.0554C66.5763 53.1978 66.5481 53.3435 66.5481 53.4931C66.5481 53.6424 66.615 53.7954 66.7497 53.9519C66.8839 54.1083 67.103 54.1865 67.4073 54.1865C67.7113 54.1865 67.934 54.0231 68.0755 53.6957L69.1787 50.9852H75.0976L76.2221 53.6957C76.3632 54.0231 76.5859 54.1865 76.8902 54.1865C77.1942 54.1865 77.4133 54.1083 77.5478 53.9519C77.6822 53.7954 77.7494 53.6424 77.7494 53.4931C77.7494 53.3435 77.7209 53.1978 77.6645 53.0554L73.252 42.5338ZM69.7939 49.5339L72.1488 43.8355L74.5037 49.5339H69.7939ZM82.8493 47.5277L79.2216 42.2136C79.0377 41.9435 78.8148 41.8079 78.5534 41.8079C78.2916 41.8079 78.0936 41.8865 77.9594 42.0427C77.8247 42.1994 77.7578 42.3773 77.7578 42.5763C77.7578 42.7756 77.8002 42.9464 77.8853 43.0886L82.0432 48.9363V53.397C82.0432 53.6103 82.1243 53.7954 82.2872 53.9519C82.4496 54.1083 82.6372 54.1865 82.8493 54.1865C83.0615 54.1865 83.2451 54.1083 83.4009 53.9519C83.5564 53.7954 83.6344 53.6103 83.6344 53.397V48.9363L87.7923 43.0886C87.8911 42.9464 87.9408 42.7756 87.9408 42.5763C87.9408 42.3773 87.8698 42.1994 87.7287 42.0427C87.5871 41.8865 87.3856 41.8079 87.124 41.8079C86.8622 41.8079 86.6468 41.9435 86.477 42.2136L82.8493 47.5277ZM88.9525 47.9974C88.9805 49.8471 89.5464 51.3554 90.6495 52.5219C91.7527 53.6886 93.2235 54.272 95.0622 54.272C96.9005 54.272 98.3716 53.6886 99.4747 52.5219C100.549 51.3554 101.108 49.8471 101.151 47.9974C101.108 46.1334 100.549 44.6251 99.4747 43.4728C98.3716 42.3061 96.9005 41.7227 95.0622 41.7227C93.2235 41.7227 91.7527 42.3061 90.6495 43.4728C89.5464 44.6396 88.9805 46.1477 88.9525 47.9974ZM91.7102 51.4122C90.9322 50.5301 90.5434 49.3918 90.5434 47.9974C90.5292 46.6029 90.9179 45.465 91.7102 44.5824C92.5303 43.6721 93.6477 43.2165 95.0622 43.2165C96.4623 43.2025 97.5724 43.6577 98.3928 44.5824C99.1847 45.465 99.5809 46.6029 99.5809 47.9974C99.5809 49.3918 99.1847 50.5301 98.3928 51.4122C97.5867 52.3229 96.4764 52.7779 95.0622 52.7779C93.6477 52.7779 92.5303 52.3229 91.7102 51.4122ZM113.408 42.0534C113.253 42.2171 113.175 42.4055 113.175 42.6189V52.0525L106.492 42.3416C106.209 41.9859 105.884 41.8079 105.516 41.8079H105.304C104.979 41.8079 104.707 41.922 104.488 42.1493C104.268 42.3773 104.159 42.6478 104.159 42.9605V53.397C104.159 53.6103 104.236 53.7954 104.392 53.9519C104.548 54.1083 104.731 54.1865 104.944 54.1865C105.17 54.1865 105.361 54.1083 105.516 53.9519C105.672 53.7954 105.75 53.6103 105.75 53.397V43.9424L112.475 53.717C112.701 54.0302 113.005 54.1865 113.387 54.1865H113.599C113.91 54.1865 114.179 54.0767 114.405 53.8559C114.631 53.6353 114.745 53.3686 114.745 53.0554V42.6189C114.745 42.3915 114.667 42.1994 114.511 42.0427C114.356 41.8865 114.172 41.8079 113.96 41.8079C113.748 41.8079 113.564 41.89 113.408 42.0534ZM126.236 52.6073H120.062V48.7442H125.599C125.812 48.7442 125.988 48.6697 126.13 48.5203C126.271 48.3708 126.342 48.1967 126.342 47.9974C126.342 47.784 126.268 47.6061 126.119 47.4638C125.971 47.3216 125.797 47.2504 125.599 47.2504H120.062V43.3873H126.236C126.434 43.3873 126.607 43.3126 126.756 43.1634C126.904 43.0137 126.979 42.8398 126.979 42.6404C126.979 42.4413 126.904 42.2667 126.756 42.1174C126.607 41.9681 126.434 41.8934 126.236 41.8934H119.256C119.044 41.8934 118.86 41.9755 118.705 42.1389C118.549 42.3026 118.471 42.4911 118.471 42.7044V53.3116C118.471 53.5249 118.549 53.71 118.705 53.8663C118.86 54.0231 119.044 54.1013 119.256 54.1013H126.236C126.434 54.1013 126.607 54.0302 126.756 53.8879C126.904 53.7456 126.979 53.575 126.979 53.3755C126.979 53.162 126.904 52.9807 126.756 52.8315C126.607 52.6821 126.434 52.6073 126.236 52.6073Z" fill="#FFFFFE"/>
</g>
</g>
</g>
</svg>
