<svg width="150" height="96" viewBox="0 0 150 96" fill="none" xmlns="http://www.w3.org/2000/svg">
<g id="eBay" style="mix-blend-mode:luminosity">
<g id="eBay_2">
<g id="Group">
<path id="e" d="M32.7411 35.125C24.7003 35.125 18 38.5363 18 48.828C18 56.9813 22.5055 62.1157 32.9487 62.1157C45.2408 62.1157 46.0288 54.0185 46.0288 54.0185H40.0727C40.0727 54.0185 38.7956 58.3785 32.5854 58.3785C27.5273 58.3785 23.8893 54.9616 23.8893 50.1723H46.6517V47.167C46.6517 42.4289 43.6438 35.125 32.7411 35.125ZM32.5335 38.966C37.3482 38.966 40.6307 41.9156 40.6307 46.3365H24.021C24.021 41.6432 28.3054 38.966 32.5335 38.966Z" fill="#E53238"/>
<path id="b" d="M46.6483 25.1602V56.9482C46.6483 58.7526 46.5195 61.2862 46.5195 61.2862H52.2004C52.2004 61.2862 52.4043 59.4665 52.4043 57.8035C52.4043 57.8035 55.211 62.1945 62.8427 62.1945C70.8792 62.1945 76.3381 56.6151 76.3381 48.6213C76.3381 41.1848 71.3239 35.2038 62.8557 35.2038C54.9258 35.2038 52.4617 39.486 52.4617 39.486V25.1602H46.6483ZM61.3894 39.1356C66.8468 39.1356 70.3171 43.186 70.3171 48.6213C70.3171 54.4497 66.309 58.2627 61.4283 58.2627C55.6037 58.2627 52.4617 53.7148 52.4617 48.6732C52.4617 43.9754 55.2811 39.1356 61.3894 39.1356Z" fill="#0064D2"/>
<path id="a" d="M90.4559 35.125C78.3592 35.125 77.5834 41.7485 77.5834 42.807H83.6044C83.6044 42.807 83.9202 38.94 90.0407 38.94C94.0179 38.94 97.0998 40.7605 97.0998 44.2603V45.506H90.0407C80.6692 45.506 75.7148 48.2476 75.7148 53.8109C75.7148 59.286 80.2925 62.2649 86.4787 62.2649C94.9095 62.2649 97.6253 57.6064 97.6253 57.6064C97.6253 59.4593 97.7682 61.2852 97.7682 61.2852H103.121C103.121 61.2852 102.913 59.022 102.913 57.574V45.0584C102.913 36.852 96.2939 35.125 90.4559 35.125ZM97.0998 49.2432V50.9042C97.0998 53.0705 95.763 58.4564 87.8931 58.4564C83.5836 58.4564 81.7359 56.3056 81.7359 53.8109C81.7359 49.2724 87.9582 49.2432 97.0998 49.2432Z" fill="#F5AF02"/>
<path id="y" d="M99.6699 36.166H106.444L116.165 55.6416L125.864 36.166H131.999L114.333 70.8387H107.897L112.995 61.1732L99.6699 36.166Z" fill="#86B817"/>
</g>
</g>
</g>
</svg>
