<svg width="15" height="14" viewBox="0 0 15 14" fill="none" xmlns="http://www.w3.org/2000/svg">
<path d="M12.1916 9.12189L10.542 8.93354C10.1458 8.88808 9.75612 9.02447 9.47685 9.30373L8.28185 10.4987C6.44388 9.56352 4.93713 8.06327 4.00191 6.21881L5.20341 5.01731C5.48268 4.73804 5.61906 4.34836 5.5736 3.95219L5.38526 2.31556C5.30732 1.6596 4.75528 1.16602 4.09284 1.16602H2.96927C2.23538 1.16602 1.62489 1.77651 1.67035 2.5104C2.01457 8.05677 6.45037 12.4861 11.9903 12.8303C12.7241 12.8758 13.3346 12.2653 13.3346 11.5314V10.4078C13.3411 9.75186 12.8475 9.19982 12.1916 9.12189Z" fill="#393939"/>
</svg>
