<svg width="14" height="14" viewBox="0 0 14 14" fill="none" xmlns="http://www.w3.org/2000/svg">
<path fill-rule="evenodd" clip-rule="evenodd" d="M10.5012 4.08398C10.5012 6.01698 8.93418 7.58398 7.00118 7.58398C5.06818 7.58398 3.50118 6.01698 3.50118 4.08398C3.50118 2.15099 5.06818 0.583984 7.00118 0.583984C8.93418 0.583984 10.5012 2.15099 10.5012 4.08398ZM9.33451 4.08398C9.33451 5.37265 8.28984 6.41732 7.00118 6.41732C5.71252 6.41732 4.66785 5.37265 4.66785 4.08398C4.66785 2.79532 5.71252 1.75065 7.00118 1.75065C8.28984 1.75065 9.33451 2.79532 9.33451 4.08398Z" fill="#393939"/>
<path fill-rule="evenodd" clip-rule="evenodd" d="M7.00122 8.16732C5.28907 8.16732 4.05459 8.52247 3.16905 9.055C2.27999 9.58965 1.78062 10.2804 1.50486 10.8845C1.27241 11.3938 1.3782 11.9128 1.68704 12.2825C1.98143 12.6349 2.43916 12.834 2.91788 12.834H11.0845C11.5632 12.834 12.021 12.6349 12.3153 12.2825C12.6242 11.9128 12.73 11.3938 12.4975 10.8846C12.2218 10.2804 11.7224 9.58966 10.8334 9.05501C9.94786 8.52248 8.71339 8.16732 7.00122 8.16732ZM2.56618 11.369C2.75761 10.9496 3.10924 10.4523 3.7703 10.0548C4.4349 9.65514 5.44968 9.33398 7.00122 9.33398C8.55278 9.33398 9.56755 9.65515 10.2321 10.0548C10.8932 10.4523 11.2448 10.9496 11.4362 11.369C11.4588 11.4185 11.4578 11.4483 11.4556 11.4635C11.453 11.4809 11.4444 11.5052 11.42 11.5346C11.3674 11.5975 11.2501 11.6673 11.0845 11.6673H2.91788C2.75225 11.6673 2.63502 11.5975 2.58243 11.5346C2.55794 11.5052 2.54943 11.4808 2.54684 11.4635C2.54456 11.4483 2.54358 11.4185 2.56618 11.369Z" fill="#393939"/>
</svg>
